{
  "asset": {
    "generator": "Khronos glTF Blender I/O v3.3.32",
    "version": "2.0"
  },
  "scene": 0,
  "scenes": [
    {
      "name": "Scene",
      "nodes": [
        0
      ]
    }
  ],
  "nodes": [
    {
      "mesh": 0,
      "name": "garden_gloves_01"
    }
  ],
  "materials": [
    {
      "doubleSided": true,
      "name": "garden_gloves_01",
      "normalTexture": {
        "index": 0
      },
      "pbrMetallicRoughness": {
        "baseColorTexture": {
          "index": 1
        },
        "metallicFactor": 0,
        "metallicRoughnessTexture": {
          "index": 2
        }
      }
    }
  ],
  "meshes": [
    {
      "name": "mesh.002",
      "primitives": [
        {
          "attributes": {
            "POSITION": 0,
            "NORMAL": 1,
            "TEXCOORD_0": 2
          },
          "indices": 3,
          "material": 0
        }
      ]
    }
  ],
  "textures": [
    {
      "sampler": 0,
      "source": 0
    },
    {
      "sampler": 0,
      "source": 1
    },
    {
      "sampler": 0,
      "source": 2
    }
  ],
  "images": [
    {
      "mimeType": "image/jpeg",
      "name": "garden_gloves_01_nor_gl",
      "uri": "textures/garden_gloves_01_nor_gl_1k.jpg"
    },
    {
      "mimeType": "image/jpeg",
      "name": "garden_gloves_01_diff",
      "uri": "textures/garden_gloves_01_diff_1k.jpg"
    },
    {
      "mimeType": "image/jpeg",
      "name": "garden_gloves_01_rough",
      "uri": "textures/garden_gloves_01_arm_1k.jpg"
    }
  ],
  "accessors": [
    {
      "bufferView": 0,
      "componentType": 5126,
      "count": 3975,
      "max": [
        0.11774531751871109,
        0.07592906057834625,
        0.17154379189014435
      ],
      "min": [
        -0.10881177335977554,
        -0.00009720027446746826,
        -0.12749861180782318
      ],
      "type": "VEC3"
    },
    {
      "bufferView": 1,
      "componentType": 5126,
      "count": 3975,
      "type": "VEC3"
    },
    {
      "bufferView": 2,
      "componentType": 5126,
      "count": 3975,
      "type": "VEC2"
    },
    {
      "bufferView": 3,
      "componentType": 5123,
      "count": 20466,
      "type": "SCALAR"
    }
  ],
  "bufferViews": [
    {
      "buffer": 0,
      "byteLength": 47700,
      "byteOffset": 0,
      "target": 34962
    },
    {
      "buffer": 0,
      "byteLength": 47700,
      "byteOffset": 47700,
      "target": 34962
    },
    {
      "buffer": 0,
      "byteLength": 31800,
      "byteOffset": 95400,
      "target": 34962
    },
    {
      "buffer": 0,
      "byteLength": 40932,
      "byteOffset": 127200,
      "target": 34963
    }
  ],
  "samplers": [
    {
      "magFilter": 9729,
      "minFilter": 9987
    }
  ],
  "buffers": [
    {
      "byteLength": 168132,
      "uri": "garden_gloves_01.bin"
    }
  ]
}